<?xml version="1.0" encoding="UTF-8" standalone="no"?>
<!-- SPDX-License-Identifier: CC-BY-SA-4.0 OR GPL-3.0-or-later -->
<svg
   xmlns:dc="http://purl.org/dc/elements/1.1/"
   xmlns:cc="http://creativecommons.org/ns#"
   xmlns:rdf="http://www.w3.org/1999/02/22-rdf-syntax-ns#"
   xmlns:svg="http://www.w3.org/2000/svg"
   xmlns="http://www.w3.org/2000/svg"
   xmlns:sodipodi="http://sodipodi.sourceforge.net/DTD/sodipodi-0.dtd"
   xmlns:inkscape="http://www.inkscape.org/namespaces/inkscape"
   id="svg132"
   xml:space="preserve"
   enable-background="new 0 0 320.0 180.0"
   viewBox="0 0 320.0 180.0"
   height="100%"
   width="100%"
   y="0%"
   x="0%"
   version="1.1"
   sodipodi:docname="banner-raw.svg"
   inkscape:version="1.0.2 (e86c8708, 2021-01-15)"
   inkscape:export-filename="/Users/muntashir/bitmap_final_2.png"
   inkscape:export-xdpi="640"
   inkscape:export-ydpi="640"><sodipodi:namedview
   pagecolor="#ffffff"
   bordercolor="#666666"
   borderopacity="1"
   objecttolerance="10"
   gridtolerance="10"
   guidetolerance="10"
   inkscape:pageopacity="0"
   inkscape:pageshadow="2"
   inkscape:window-width="1366"
   inkscape:window-height="723"
   id="namedview880"
   showgrid="false"
   inkscape:zoom="2.0875"
   inkscape:cx="255.16561"
   inkscape:cy="92.395207"
   inkscape:window-x="0"
   inkscape:window-y="23"
   inkscape:window-maximized="1"
   inkscape:current-layer="layer4"
   inkscape:document-rotation="0"
   showguides="false" /><metadata
   id="metadata136"><rdf:RDF><cc:Work
       rdf:about=""><dc:format>image/svg+xml</dc:format><dc:type
         rdf:resource="http://purl.org/dc/dcmitype/StillImage" /><dc:title /></cc:Work></rdf:RDF></metadata>
<defs
   id="defs100"><pattern
     patternUnits="userSpaceOnUse"
     width="2"
     height="1"
     patternTransform="translate(0,0) scale(10,10)"
     id="Strips1_1"><rect
       style="fill:black;stroke:none"
       x="0"
       y="-0.5"
       width="1"
       height="2"
       id="rect5436" /></pattern><filter
     height="1.0589329"
     y="-0.029466433"
     width="1.0150682"
     x="-0.0075341062"
     id="filter4716"
     style="color-interpolation-filters:sRGB"><feGaussianBlur
       id="feGaussianBlur4718"
       stdDeviation="0.48355877" /></filter><filter
     id="filter1098"
     style="color-interpolation-filters:sRGB;"
     x="-0.00019656968"
     width="1.0003931"
     y="-0.00020062864"
     height="1.0004013"><feFlood
       id="feFlood1088"
       result="flood"
       flood-color="rgb(0,0,0)"
       flood-opacity="0.498039" /><feComposite
       id="feComposite1090"
       result="composite1"
       operator="in"
       in2="SourceGraphic"
       in="flood" /><feGaussianBlur
       id="feGaussianBlur1092"
       result="blur"
       stdDeviation="0.015073828"
       in="composite1" /><feOffset
       id="feOffset1094"
       result="offset"
       dy="-2.77556e-17"
       dx="6" /><feComposite
       id="feComposite1096"
       result="composite2"
       operator="over"
       in2="offset"
       in="SourceGraphic" /></filter><clipPath
     clipPathUnits="userSpaceOnUse"
     id="clipPath976"><rect
       style="opacity:1;fill:#dcaf74;fill-opacity:1;fill-rule:nonzero;stroke:none;stroke-width:0;stroke-miterlimit:4;stroke-dasharray:none"
       id="rect978"
       width="320"
       height="180"
       x="9.9999997e-06"
       y="0" /></clipPath><filter
     id="filter520-2"
     style="color-interpolation-filters:sRGB"
     x="-0.10776847"
     width="1.215537"
     y="-0.10823204"
     height="1.216464"><feFlood
       id="feFlood510-6"
       result="flood"
       flood-color="rgb(0,0,0)"
       flood-opacity="0.498039" /><feComposite
       id="feComposite512-1"
       result="composite1"
       operator="in"
       in2="SourceGraphic"
       in="flood" /><feGaussianBlur
       id="feGaussianBlur514-7"
       result="blur"
       stdDeviation="4.4032402"
       in="composite1" /><feOffset
       id="feOffset516-6"
       result="offset"
       dy="4.57967e-15"
       dx="2.05669e-14" /><feComposite
       id="feComposite518-5"
       result="composite2"
       operator="over"
       in2="offset"
       in="SourceGraphic" /></filter></defs>
	
	

	
 

	


	
 

	

	
	
	
	
	
<g
   style="display:inline"
   id="layer1" /><text
   id="text4702"
   y="126.85714"
   x="136"
   style="font-style:normal;font-variant:normal;font-weight:normal;font-stretch:normal;font-size:40px;line-height:1.25;font-family:Chilanka;-inkscape-font-specification:'Chilanka, Normal';font-variant-ligatures:normal;font-variant-position:normal;font-variant-caps:normal;font-variant-numeric:normal;font-variant-alternates:normal;font-feature-settings:normal;text-indent:0;text-align:start;text-decoration:none;text-decoration-line:none;text-decoration-style:solid;text-decoration-color:#000000;letter-spacing:0px;word-spacing:0px;text-transform:none;writing-mode:lr-tb;direction:ltr;text-orientation:mixed;dominant-baseline:auto;baseline-shift:baseline;text-anchor:start;white-space:normal;shape-padding:0;opacity:1;vector-effect:none;fill:#000000;fill-opacity:1;stroke:url(#Strips1_1);stroke-width:4.5999999;stroke-linecap:butt;stroke-linejoin:miter;stroke-miterlimit:4;stroke-dasharray:none;stroke-dashoffset:0;stroke-opacity:1;filter:url(#filter4716)"
   xml:space="preserve"><tspan
     style="fill:#ffd5d5;stroke:#271575;stroke-width:4.5999999;stroke-miterlimit:4;stroke-dasharray:none;stroke-opacity:1;paint-order:stroke fill markers"
     y="158.5238"
     x="136"
     id="tspan4700" /></text>











<g
   inkscape:groupmode="layer"
   id="layer3"
   inkscape:label="background"
   style="display:inline"><path
     id="path102"
     d="M 1e-5,0 H 320 V 180 H 1e-5 Z"
     stroke-linecap="square"
     stroke-linejoin="miter"
     stroke-width="0"
     stroke-opacity="1"
     stroke="#000000"
     fill-rule="nonzero"
     fill-opacity="1.000"
     fill="#CCCCCC"
     style="mix-blend-mode:normal;fill:#dcaf74;fill-opacity:1" /><g
     id="g966"
     clip-path="url(#clipPath976)"
     style="fill:#000000;fill-opacity:0"
     transform="scale(1.0017899,1)"><ellipse
       transform="matrix(-1.1188057,0,0,1.2084826,-19.555624,-19.010568)"
       id="path173"
       style="opacity:1;mix-blend-mode:normal;fill:#212121;fill-opacity:1;fill-rule:nonzero;stroke-width:0;stroke-miterlimit:4;stroke-dasharray:none;filter:url(#filter1098)"
       ry="90.159576"
       rx="92.021278"
       cy="90.204498"
       cx="-4.255311" /></g></g><g
   inkscape:groupmode="layer"
   id="layer2"
   inkscape:label="Logo"
   style="display:inline"><path
     style="fill:#212121;fill-opacity:1;stroke-width:0;stroke-miterlimit:4;stroke-dasharray:none;filter:url(#filter520-2)"
     id="path124"
     d="m 76.597799,42.5678 c 27.080001,0 49.030001,21.86 49.030001,48.82 0,26.96 -21.95,48.82 -49.030001,48.82 -27.08,0 -49.03,-21.86 -49.03,-48.82 0,-26.96 21.95,-48.82 49.03,-48.82 z"
     stroke-linecap="square"
     stroke-linejoin="miter"
     stroke-width="0.72"
     stroke-opacity="1"
     stroke="#393939"
     fill-rule="nonzero"
     fill-opacity="1.000"
     fill="#393939"
     transform="matrix(1.0067477,0,0,1.0103088,-0.11473392,-2.3299051)" /><path
     id="path126"
     d="M 46.022359,116.60222 45.325895,64.593853 Q 45.097061,58.42786 52.638701,58.31575 h 52.194519 q 3.16389,0.11211 3.16389,5.381231 l 0.68651,51.998179 q 0.0597,6.06407 -6.70588,5.98254 H 51.036844 q -5.014485,0.14267 -5.034389,-3.02694 l -0.67656,-54.056907"
     stroke-linecap="square"
     stroke-linejoin="round"
     stroke-width="1.6199999"
     stroke-opacity="1"
     stroke="#dcaf74"
     fill-rule="nonzero"
     fill-opacity="1"
     fill="#dcaf74"
     style="stroke-width:1.6315;stroke-miterlimit:4;stroke-dasharray:none" /><path
     id="path128"
     d="m 88.543901,74.989656 7.374411,-2.568614 5.777138,9.853051 -6.461688,4.886388 q 0.197064,2.638855 0.1867,5.568682 l 6.503158,4.525178 -6.171259,10.103889 -7.312184,-3.21078 q -1.773583,1.67563 -4.397678,3.11046 l -1.172017,7.66569 -11.709853,-0.55185 -0.798628,-7.89648 q -2.70707,-1.21407 -4.978505,-2.81947 l -7.426262,2.89976 -5.434868,-10.04371 7.063249,-4.424844 Q 58.952937,89.899671 58.952937,87.48156 l -6.87656,-4.63555 5.828995,-9.832983 7.633701,2.899726 q 2.115858,-1.896361 4.864416,-3.000062 l 0.705279,-7.71588 11.720227,-0.120407 1.286116,7.836287 q 1.742469,0.632123 4.325066,2.117102 z"
     stroke-linecap="square"
     stroke-linejoin="round"
     stroke-width="1.44"
     stroke-opacity="1"
     stroke="#393939"
     fill-rule="nonzero"
     fill-opacity="1.000"
     fill="#393939"
     style="fill:#212121;fill-opacity:1;stroke:#212121;stroke-width:1.65281;stroke-miterlimit:4;stroke-dasharray:none;stroke-opacity:1" /><path
     id="path130"
     d="m 77,83.318275 c 3.697556,0 6.681725,2.995608 6.681725,6.681726 0,3.686116 -2.984169,6.68172 -6.681725,6.68172 -3.687506,0 -6.681725,-2.995604 -6.681725,-6.68172 0,-3.686118 2.994219,-6.681726 6.681725,-6.681726 z"
     stroke-linecap="square"
     stroke-linejoin="miter"
     stroke-width="1.63382"
     stroke-opacity="1"
     stroke="#dcaf74"
     fill-rule="nonzero"
     fill-opacity="1"
     fill="#dcaf74"
     style="stroke-width:1.63655;stroke-miterlimit:4;stroke-dasharray:none" /></g><g
   inkscape:groupmode="layer"
   id="layer4"
   inkscape:label="Name"
   style="display:inline"><g
     aria-label="Manager"
     id="text6156"
     style="font-style:normal;font-variant:normal;font-weight:bold;font-stretch:normal;font-size:40px;line-height:1.25;font-family:'Helvetica Neue';-inkscape-font-specification:'Helvetica Neue, Bold';font-variant-ligatures:normal;font-variant-position:normal;font-variant-caps:normal;font-variant-numeric:normal;font-variant-alternates:normal;font-variant-east-asian:normal;text-indent:0;text-align:start;text-decoration:none;text-decoration-line:none;text-decoration-style:solid;text-decoration-color:#000000;letter-spacing:0px;word-spacing:0px;text-transform:none;writing-mode:lr-tb;direction:ltr;text-orientation:mixed;dominant-baseline:auto;baseline-shift:baseline;text-anchor:start;white-space:normal;shape-padding:0;opacity:1;vector-effect:none;fill:#212121;fill-opacity:1;stroke:#1f1f2c;stroke-width:0;stroke-linecap:butt;stroke-linejoin:miter;stroke-miterlimit:4;stroke-dasharray:none;stroke-dashoffset:0;stroke-opacity:1"><path
       d="m 138.00001,91.508871 v 28.559999 h 5.88 v -20.04 h 0.08 l 7,20.04 h 4.84 l 7,-20.239999 h 0.08 v 20.239999 h 5.88 V 91.508871 h -8.84 l -6.32,19.639999 h -0.08 l -6.68,-19.639999 z"
       style="font-style:normal;font-variant:normal;font-weight:bold;font-stretch:normal;font-size:40px;font-family:'Helvetica Neue';-inkscape-font-specification:'Helvetica Neue, Bold';font-variant-ligatures:normal;font-variant-caps:normal;font-variant-numeric:normal;font-variant-east-asian:normal;fill:#212121;fill-opacity:1;stroke-width:0;stroke-miterlimit:4;stroke-dasharray:none"
       id="path4446" /><path
       d="m 173.41001,105.74887 q 0.12,-2 1,-3.32 0.88,-1.32 2.24,-2.12 1.36,-0.799999 3.04,-1.119999 1.72,-0.36 3.44,-0.36 1.56,0 3.16,0.24 1.6,0.2 2.92,0.84 1.32,0.639999 2.16,1.799999 0.84,1.12 0.84,3 v 10.76 q 0,1.4 0.16,2.68 0.16,1.28 0.56,1.92 h -5.76 q -0.16,-0.48 -0.28,-0.96 -0.08,-0.52 -0.12,-1.04 -1.36,1.4 -3.2,1.96 -1.84,0.56 -3.76,0.56 -1.48,0 -2.76,-0.36 -1.28,-0.36 -2.24,-1.12 -0.96,-0.76 -1.52,-1.92 -0.52,-1.16 -0.52,-2.76 0,-1.76 0.6,-2.88 0.64,-1.16 1.6,-1.84 1,-0.68 2.24,-1 1.28,-0.36 2.56,-0.56 1.28,-0.2 2.52,-0.32 1.24,-0.12 2.2,-0.36 0.96,-0.24 1.52,-0.68 0.56,-0.48 0.52,-1.36 0,-0.92 -0.32,-1.44 -0.28,-0.56 -0.8,-0.84 -0.48,-0.32 -1.16,-0.4 -0.64,-0.12 -1.4,-0.12 -1.68,0 -2.64,0.72 -0.96,0.72 -1.12,2.4 z m 13.12,4.2 q -0.36,0.32 -0.92,0.52 -0.52,0.16 -1.16,0.28 -0.6,0.12 -1.28,0.2 -0.68,0.08 -1.36,0.2 -0.64,0.12 -1.28,0.32 -0.6,0.2 -1.08,0.56 -0.44,0.32 -0.72,0.84 -0.28,0.52 -0.28,1.32 0,0.76 0.28,1.28 0.28,0.52 0.76,0.84 0.48,0.28 1.12,0.4 0.64,0.12 1.32,0.12 1.68,0 2.6,-0.56 0.92,-0.56 1.36,-1.32 0.44,-0.8 0.52,-1.6 0.12,-0.8 0.12,-1.28 z"
       style="font-style:normal;font-variant:normal;font-weight:bold;font-stretch:normal;font-size:40px;font-family:'Helvetica Neue';-inkscape-font-specification:'Helvetica Neue, Bold';font-variant-ligatures:normal;font-variant-caps:normal;font-variant-numeric:normal;font-variant-east-asian:normal;fill:#212121;fill-opacity:1;stroke-width:0;stroke-miterlimit:4;stroke-dasharray:none"
       id="path4448" /><path
       d="m 196.61876,99.388871 v 20.679999 h 5.68 v -10.84 q 0,-3.16 1.04,-4.52 1.04,-1.4 3.36,-1.4 2.04,0 2.84,1.28 0.8,1.24 0.8,3.8 v 11.68 h 5.68 v -12.72 q 0,-1.92 -0.36,-3.48 -0.32,-1.6 -1.16,-2.68 -0.84,-1.12 -2.32,-1.719999 -1.44,-0.64 -3.72,-0.64 -1.8,0 -3.52,0.84 -1.72,0.799999 -2.8,2.599999 h -0.12 v -2.879999 z"
       style="font-style:normal;font-variant:normal;font-weight:bold;font-stretch:normal;font-size:40px;font-family:'Helvetica Neue';-inkscape-font-specification:'Helvetica Neue, Bold';font-variant-ligatures:normal;font-variant-caps:normal;font-variant-numeric:normal;font-variant-east-asian:normal;fill:#212121;fill-opacity:1;stroke-width:0;stroke-miterlimit:4;stroke-dasharray:none"
       id="path4450" /><path
       d="m 220.12876,105.74887 q 0.12,-2 1,-3.32 0.88,-1.32 2.24,-2.12 1.36,-0.799999 3.04,-1.119999 1.72,-0.36 3.44,-0.36 1.56,0 3.16,0.24 1.6,0.2 2.92,0.84 1.32,0.639999 2.16,1.799999 0.84,1.12 0.84,3 v 10.76 q 0,1.4 0.16,2.68 0.16,1.28 0.56,1.92 h -5.76 q -0.16,-0.48 -0.28,-0.96 -0.08,-0.52 -0.12,-1.04 -1.36,1.4 -3.2,1.96 -1.84,0.56 -3.76,0.56 -1.48,0 -2.76,-0.36 -1.28,-0.36 -2.24,-1.12 -0.96,-0.76 -1.52,-1.92 -0.52,-1.16 -0.52,-2.76 0,-1.76 0.6,-2.88 0.64,-1.16 1.6,-1.84 1,-0.68 2.24,-1 1.28,-0.36 2.56,-0.56 1.28,-0.2 2.52,-0.32 1.24,-0.12 2.2,-0.36 0.96,-0.24 1.52,-0.68 0.56,-0.48 0.52,-1.36 0,-0.92 -0.32,-1.44 -0.28,-0.56 -0.8,-0.84 -0.48,-0.32 -1.16,-0.4 -0.64,-0.12 -1.4,-0.12 -1.68,0 -2.64,0.72 -0.96,0.72 -1.12,2.4 z m 13.12,4.2 q -0.36,0.32 -0.92,0.52 -0.52,0.16 -1.16,0.28 -0.6,0.12 -1.28,0.2 -0.68,0.08 -1.36,0.2 -0.64,0.12 -1.28,0.32 -0.6,0.2 -1.08,0.56 -0.44,0.32 -0.72,0.84 -0.28,0.52 -0.28,1.32 0,0.76 0.28,1.28 0.28,0.52 0.76,0.84 0.48,0.28 1.12,0.4 0.64,0.12 1.32,0.12 1.68,0 2.6,-0.56 0.92,-0.56 1.36,-1.32 0.44,-0.8 0.52,-1.6 0.12,-0.8 0.12,-1.28 z"
       style="font-style:normal;font-variant:normal;font-weight:bold;font-stretch:normal;font-size:40px;font-family:'Helvetica Neue';-inkscape-font-specification:'Helvetica Neue, Bold';font-variant-ligatures:normal;font-variant-caps:normal;font-variant-numeric:normal;font-variant-east-asian:normal;fill:#212121;fill-opacity:1;stroke-width:0;stroke-miterlimit:4;stroke-dasharray:none"
       id="path4452" /><path
       d="m 252.97751,115.18887 q -1.32,0 -2.2,-0.56 -0.88,-0.56 -1.44,-1.44 -0.52,-0.88 -0.76,-1.96 -0.2,-1.12 -0.2,-2.24 0,-1.16 0.24,-2.2 0.28,-1.08 0.84,-1.88 0.6,-0.84 1.44,-1.32 0.88,-0.48 2.08,-0.48 1.4,0 2.32,0.52 0.92,0.52 1.48,1.4 0.56,0.88 0.8,2.04 0.24,1.12 0.24,2.4 0,1.12 -0.32,2.16 -0.28,1 -0.88,1.8 -0.6,0.8 -1.52,1.28 -0.92,0.48 -2.12,0.48 z m 10.24,3.56 V 99.388871 h -5.4 v 2.759999 h -0.08 q -1.04,-1.8 -2.6,-2.559999 -1.52,-0.76 -3.56,-0.76 -2.16,0 -3.84,0.84 -1.64,0.839999 -2.76,2.279999 -1.12,1.4 -1.72,3.28 -0.56,1.84 -0.56,3.84 0,2.12 0.48,4.04 0.52,1.88 1.6,3.32 1.08,1.4 2.76,2.24 1.68,0.8 4,0.8 1.88,0 3.56,-0.76 1.72,-0.8 2.64,-2.44 h 0.08 v 2.72 q 0.04,2.2 -1.08,3.64 -1.08,1.44 -3.48,1.44 -1.52,0 -2.68,-0.64 -1.16,-0.6 -1.56,-2.2 h -5.64 q 0.12,1.76 0.96,3 0.88,1.28 2.16,2.08 1.32,0.8 2.88,1.16 1.6,0.4 3.12,0.4 3.56,0 5.68,-0.96 2.12,-0.96 3.24,-2.36 1.12,-1.36 1.44,-2.96 0.36,-1.6 0.36,-2.84 z"
       style="font-style:normal;font-variant:normal;font-weight:bold;font-stretch:normal;font-size:40px;font-family:'Helvetica Neue';-inkscape-font-specification:'Helvetica Neue, Bold';font-variant-ligatures:normal;font-variant-caps:normal;font-variant-numeric:normal;font-variant-east-asian:normal;fill:#212121;fill-opacity:1;stroke-width:0;stroke-miterlimit:4;stroke-dasharray:none"
       id="path4454" /><path
       d="m 281.71063,107.50887 h -9.24 q 0.04,-0.6 0.24,-1.36 0.24,-0.76 0.76,-1.44 0.56,-0.68 1.44,-1.12 0.92,-0.48 2.28,-0.48 2.08,0 3.08,1.12 1.04,1.12 1.44,3.28 z m -9.24,3.6 h 14.92 q 0.16,-2.4 -0.4,-4.6 -0.56,-2.2 -1.84,-3.92 -1.24,-1.72 -3.2,-2.719999 -1.96,-1.04 -4.6,-1.04 -2.36,0 -4.32,0.84 -1.92,0.839999 -3.32,2.319999 -1.4,1.44 -2.16,3.44 -0.76,2 -0.76,4.32 0,2.4 0.72,4.4 0.76,2 2.12,3.44 1.36,1.44 3.32,2.24 1.96,0.76 4.4,0.76 3.52,0 6,-1.6 2.48,-1.6 3.68,-5.32 h -5 q -0.28,0.96 -1.52,1.84 -1.24,0.84 -2.96,0.84 -2.4,0 -3.68,-1.24 -1.28,-1.24 -1.4,-4 z"
       style="font-style:normal;font-variant:normal;font-weight:bold;font-stretch:normal;font-size:40px;font-family:'Helvetica Neue';-inkscape-font-specification:'Helvetica Neue, Bold';font-variant-ligatures:normal;font-variant-caps:normal;font-variant-numeric:normal;font-variant-east-asian:normal;fill:#212121;fill-opacity:1;stroke-width:0;stroke-miterlimit:4;stroke-dasharray:none"
       id="path4456" /><path
       d="m 290.75938,99.388871 v 20.679999 h 5.68 v -9.32 q 0,-1.4 0.28,-2.6 0.28,-1.2 0.92,-2.08 0.68,-0.92 1.76,-1.44 1.08,-0.52 2.64,-0.52 0.52,0 1.08,0.08 0.56,0.04 0.96,0.12 v -5.279999 q -0.68,-0.2 -1.24,-0.2 -1.08,0 -2.08,0.32 -1,0.32 -1.88,0.919999 -0.88,0.56 -1.56,1.4 -0.68,0.8 -1.08,1.76 h -0.08 v -3.839999 z"
       style="font-style:normal;font-variant:normal;font-weight:bold;font-stretch:normal;font-size:40px;font-family:'Helvetica Neue';-inkscape-font-specification:'Helvetica Neue, Bold';font-variant-ligatures:normal;font-variant-caps:normal;font-variant-numeric:normal;font-variant-east-asian:normal;fill:#212121;fill-opacity:1;stroke-width:0;stroke-miterlimit:4;stroke-dasharray:none"
       id="path4458" /></g><g
     aria-label="App"
     id="text6156-4"
     style="font-style:normal;font-variant:normal;font-weight:normal;font-stretch:normal;font-size:40px;line-height:1.25;font-family:'Helvetica Neue';-inkscape-font-specification:'Helvetica Neue, Normal';font-variant-ligatures:normal;font-variant-position:normal;font-variant-caps:normal;font-variant-numeric:normal;font-variant-alternates:normal;font-variant-east-asian:normal;text-indent:0;text-align:start;text-decoration:none;text-decoration-line:none;text-decoration-style:solid;text-decoration-color:#000000;letter-spacing:0px;word-spacing:0px;text-transform:none;writing-mode:lr-tb;direction:ltr;text-orientation:mixed;dominant-baseline:auto;baseline-shift:baseline;text-anchor:start;white-space:normal;shape-padding:0;opacity:1;vector-effect:none;fill:#212121;fill-opacity:1;stroke:#1f1f2c;stroke-width:0;stroke-linecap:butt;stroke-linejoin:miter;stroke-miterlimit:4;stroke-dasharray:none;stroke-dashoffset:0;stroke-opacity:1"><path
       d="m 146.28001,68.891002 4.84,-13.32 h 0.08 l 4.76,13.32 z m 2.84,-16.76 -11.12,28.56 h 3.88 l 3.2,-8.6 h 12.08 l 3.12,8.6 h 4.2 l -11.16,-28.56 z"
       style="font-style:normal;font-variant:normal;font-weight:normal;font-stretch:normal;font-size:40px;font-family:'Helvetica Neue';-inkscape-font-specification:'Helvetica Neue, Normal';font-variant-ligatures:normal;font-variant-caps:normal;font-variant-numeric:normal;font-variant-east-asian:normal;fill:#212121;fill-opacity:1;stroke-width:0;stroke-miterlimit:4;stroke-dasharray:none"
       id="path4439" /><path
       d="m 166.85751,60.011002 v 28.56 h 3.4 v -10.64 h 0.08 q 0.56,0.92 1.36,1.56 0.84,0.6 1.76,0.96 0.92,0.36 1.84,0.52 0.96,0.16 1.72,0.16 2.36,0 4.12,-0.84 1.8,-0.84 2.96,-2.28 1.2,-1.48 1.76,-3.44 0.6,-1.96 0.6,-4.16 0,-2.2 -0.6,-4.16 -0.6,-1.96 -1.8,-3.44 -1.16,-1.52 -2.96,-2.4 -1.76,-0.88 -4.16,-0.88 -2.16,0 -3.96,0.8 -1.8,0.76 -2.64,2.48 h -0.08 v -2.8 z m 16,10.16 q 0,1.52 -0.32,2.96 -0.32,1.44 -1.04,2.56 -0.72,1.12 -1.92,1.8 -1.16,0.68 -2.92,0.68 -1.76,0 -3,-0.64 -1.24,-0.68 -2.04,-1.76 -0.76,-1.08 -1.12,-2.48 -0.36,-1.44 -0.36,-2.96 0,-1.44 0.32,-2.84 0.36,-1.4 1.12,-2.48 0.76,-1.12 1.96,-1.8 1.2,-0.68 2.92,-0.68 1.64,0 2.84,0.64 1.24,0.64 2,1.72 0.8,1.08 1.16,2.48 0.4,1.36 0.4,2.8 z"
       style="font-style:normal;font-variant:normal;font-weight:normal;font-stretch:normal;font-size:40px;font-family:'Helvetica Neue';-inkscape-font-specification:'Helvetica Neue, Normal';font-variant-ligatures:normal;font-variant-caps:normal;font-variant-numeric:normal;font-variant-east-asian:normal;fill:#212121;fill-opacity:1;stroke-width:0;stroke-miterlimit:4;stroke-dasharray:none"
       id="path4441" /><path
       d="m 190.60751,60.011002 v 28.56 h 3.4 v -10.64 h 0.08 q 0.56,0.92 1.36,1.56 0.84,0.6 1.76,0.96 0.92,0.36 1.84,0.52 0.96,0.16 1.72,0.16 2.36,0 4.12,-0.84 1.8,-0.84 2.96,-2.28 1.2,-1.48 1.76,-3.44 0.6,-1.96 0.6,-4.16 0,-2.2 -0.6,-4.16 -0.6,-1.96 -1.8,-3.44 -1.16,-1.52 -2.96,-2.4 -1.76,-0.88 -4.16,-0.88 -2.16,0 -3.96,0.8 -1.8,0.76 -2.64,2.48 h -0.08 v -2.8 z m 16,10.16 q 0,1.52 -0.32,2.96 -0.32,1.44 -1.04,2.56 -0.72,1.12 -1.92,1.8 -1.16,0.68 -2.92,0.68 -1.76,0 -3,-0.64 -1.24,-0.68 -2.04,-1.76 -0.76,-1.08 -1.12,-2.48 -0.36,-1.44 -0.36,-2.96 0,-1.44 0.32,-2.84 0.36,-1.4 1.12,-2.48 0.76,-1.12 1.96,-1.8 1.2,-0.68 2.92,-0.68 1.64,0 2.84,0.64 1.24,0.64 2,1.72 0.8,1.08 1.16,2.48 0.4,1.36 0.4,2.8 z"
       style="font-style:normal;font-variant:normal;font-weight:normal;font-stretch:normal;font-size:40px;font-family:'Helvetica Neue';-inkscape-font-specification:'Helvetica Neue, Normal';font-variant-ligatures:normal;font-variant-caps:normal;font-variant-numeric:normal;font-variant-east-asian:normal;fill:#212121;fill-opacity:1;stroke-width:0;stroke-miterlimit:4;stroke-dasharray:none"
       id="path4443" /></g></g></svg>
