<?xml version="1.0" encoding="UTF-8" standalone="no"?>
<!-- SPDX-License-Identifier: CC-BY-SA-4.0 OR GPL-3.0-or-later -->

<svg
   viewBox="0 0 108 108"
   id="vector"
   version="1.1"
   sodipodi:docname="icon_fm.svg"
   inkscape:version="1.2.2 (b0a8486, 2022-12-01)"
   inkscape:label="background"
   inkscape:export-filename="../../../../../../Volumes/Fallout/ic_launcher_foreground.png"
   inkscape:export-xdpi="640"
   inkscape:export-ydpi="640"
   xmlns:inkscape="http://www.inkscape.org/namespaces/inkscape"
   xmlns:sodipodi="http://sodipodi.sourceforge.net/DTD/sodipodi-0.dtd"
   xmlns="http://www.w3.org/2000/svg"
   xmlns:svg="http://www.w3.org/2000/svg"
   xmlns:rdf="http://www.w3.org/1999/02/22-rdf-syntax-ns#"
   xmlns:cc="http://creativecommons.org/ns#"
   xmlns:dc="http://purl.org/dc/elements/1.1/">
  <metadata
     id="metadata17">
    <rdf:RDF>
      <cc:Work
         rdf:about="">
        <dc:format>image/svg+xml</dc:format>
        <dc:type
           rdf:resource="http://purl.org/dc/dcmitype/StillImage" />
      </cc:Work>
    </rdf:RDF>
  </metadata>
  <defs
     id="defs15">
    <rect
       x="18.111176"
       y="-1.4298297"
       width="64.818947"
       height="44.563026"
       id="rect525" />
  </defs>
  <sodipodi:namedview
     pagecolor="#ffffff"
     bordercolor="#666666"
     borderopacity="1"
     objecttolerance="10"
     gridtolerance="10"
     guidetolerance="10"
     inkscape:pageopacity="0"
     inkscape:pageshadow="2"
     inkscape:window-width="1366"
     inkscape:window-height="715"
     id="namedview13"
     showgrid="false"
     inkscape:zoom="4.0542912"
     inkscape:cx="63.512952"
     inkscape:cy="49.453774"
     inkscape:window-x="0"
     inkscape:window-y="25"
     inkscape:window-maximized="1"
     inkscape:current-layer="layer1"
     inkscape:document-rotation="0"
     inkscape:showpageshadow="0"
     inkscape:pagecheckerboard="0"
     inkscape:deskcolor="#d1d1d1" />
  <g
     inkscape:groupmode="layer"
     id="layer1"
     inkscape:label="foreground"
     style="display:inline">
    <path
       id="path719"
       style="stroke-width:5.4;fill:#dcaf74;fill-opacity:1"
       d="M 10.800781 10.800781 C 4.8067872 10.800781 2.3684734e-15 15.605615 0 21.599609 L 0 86.400391 A 10.8 10.8 0 0 0 10.800781 97.199219 L 97.199219 97.199219 A 10.8 10.8 0 0 0 108 86.400391 L 108 32.400391 C 108 26.406397 103.13921 21.599609 97.199219 21.599609 L 54 21.599609 L 43.199219 10.800781 L 10.800781 10.800781 z M 53.322266 26.503906 C 54.60079 26.360591 56.810262 30.660489 57.855469 32.265625 C 59.245916 34.363939 61.001407 37.738945 63.125 42.390625 C 65.248594 47.042307 67.573343 51.657791 69.621094 56.511719 C 71.694127 61.365649 73.766809 66.119804 75.839844 70.771484 C 77.938157 75.423164 79.922186 79.239506 81.792969 82.222656 C 83.689038 85.180517 85.243545 86.660156 86.457031 86.660156 C 86.558165 86.660156 86.672432 86.648317 86.798828 86.623047 C 86.950538 86.572507 86.852101 86.669801 86.978516 86.644531 C 87.104936 86.619201 87.219197 86.605469 87.320312 86.605469 C 87.446726 86.580209 87.535388 86.593981 87.585938 86.644531 C 87.661756 86.695086 87.699219 86.783741 87.699219 86.910156 C 87.699219 87.33993 87.405547 87.873089 86.34375 88.783203 C 85.307233 89.718592 84.105402 90.565794 82.740234 91.324219 C 81.375066 92.107925 80.30129 92.5 79.517578 92.5 C 78.708592 92.5 77.835779 91.904997 76.900391 90.716797 C 75.990277 89.553872 75.208085 88.277167 74.550781 86.886719 C 73.918756 85.49627 73.212322 83.990388 72.630859 82.675781 C 70.037153 77.603774 66.584848 75.734256 58.205078 75.519531 C 52.976223 75.372566 43.087778 77.167967 38.5625 79.417969 C 36.56531 81.870214 35.099456 83.537048 34.164062 84.421875 C 33.317046 85.230863 31.566116 86.941478 29.691406 88.384766 C 27.665716 89.771289 27.25232 90.02632 24.888672 91.154297 C 23.867911 91.641427 19.086338 93.438491 20.591797 91.832031 C 24.758307 88.302226 26.671591 86.570259 29.384766 83.740234 C 30.471845 82.627876 31.521969 81.439828 32.533203 80.175781 C 34.783202 77.344323 36.844058 74.398831 38.714844 71.339844 C 40.610911 68.255574 42.165422 65.373131 43.378906 62.693359 C 44.592387 59.988304 45.666168 57.36001 46.601562 54.806641 C 47.536957 52.253271 48.258055 49.940221 48.763672 47.867188 C 49.294569 45.768875 50.032569 43.626118 50.335938 42.083984 C 50.664581 40.54185 51.225166 37.997673 51.351562 37.011719 C 52.32851 30.932509 52.255829 31.110793 52.837891 26.857422 C 52.976477 26.634805 53.139619 26.52438 53.322266 26.503906 z M 55.96875 45.060547 C 55.994764 45.017194 55.740875 45.604331 55.4375 46.691406 C 55.15941 47.778486 54.678675 49.332997 53.996094 51.355469 C 53.338789 53.37794 52.517207 55.590504 51.53125 57.992188 C 50.570579 60.393872 49.23082 63.136437 47.511719 66.220703 C 45.8179 69.304973 43.948142 72.236684 41.900391 75.017578 C 47.967804 72.059717 53.971101 70.582031 59.912109 70.582031 C 61.226714 70.582031 62.477815 70.656899 63.666016 70.808594 C 64.854217 70.96029 65.790071 71.111977 66.472656 71.263672 C 67.155242 71.390086 67.535488 71.453125 67.611328 71.453125 L 67.685547 71.416016 C 67.685547 71.137928 65.790179 66.67536 61.998047 58.029297 C 58.205913 49.383237 55.851692 45.25565 55.96875 45.060547 z " />
  </g>
</svg>
