<?xml version="1.0" encoding="UTF-8"?>
<svg style="background-color:rgb(255, 255, 255)" version="1.1" viewBox="-.5 -.5 651 361" xmlns="http://www.w3.org/2000/svg">
 <rect y="170" width="130" height="60" fill="none" pointer-events="all" stroke="#000000"/>
 <text x="64.36998" y="195.54974" fill="#000000" font-family="Palatino" font-size="15px" text-anchor="middle"><tspan x="64.36998" y="195.54974">Android</tspan><tspan x="64.36998" y="214.29974">Settings</tspan></text>
 <rect x="220" width="140" height="60" fill="none" pointer-events="all" stroke="#000000"/>
 <text x="290" y="35" fill="#000000" font-family="Palatino" font-size="15px" text-anchor="middle">AppOpsManager</text>
 <rect x="210" y="170" width="160" height="60" fill="none" pointer-events="all" stroke="#000000"/>
 <path d="m226 170v60m128-60v60" fill="none" pointer-events="all" stroke="#000000" stroke-miterlimit="10"/>
 <text x="290" y="205" fill="#000000" font-family="Palatino" font-size="15px" text-anchor="middle">AppOpsService</text>
 <rect x="490" y="150" width="160" height="100" fill="none" pointer-events="all" stroke="#000000"/>
 <g transform="translate(-.5 -32.5)">
  <text x="570" y="204" fill="#000000" font-family="Palatino" font-size="15px" text-anchor="middle"><tspan x="570" y="204">Java Service &amp; Native</tspan><tspan x="570" y="222.75">Service</tspan></text>
 </g>
 <path transform="rotate(90,290,330)" d="m260 285c0-8.28 13.43-15 30-15 7.96 0 15.59 1.58 21.21 4.39 5.63 2.82 8.79 6.63 8.79 10.61v90c0 8.28-13.43 15-30 15s-30-6.72-30-15z" fill="none" pointer-events="all" stroke="#000000" stroke-miterlimit="10"/>
 <path transform="rotate(90,290,330)" d="m320 285c0 8.28-13.43 15-30 15s-30-6.72-30-15" fill="none" pointer-events="all" stroke="#000000" stroke-miterlimit="10"/>
 <text x="278" y="335" fill="#000000" font-family="Palatino" font-size="15px" font-style="italic" text-anchor="middle">appops.xml</text>
 <g fill="none" stroke="#000000" stroke-miterlimit="10">
  <path d="m290 60v53.88" pointer-events="stroke"/>
  <path d="m290 128.88-7.5-15h15z" pointer-events="all"/>
  <path d="m65 170q25-110 148.8-138.57" pointer-events="stroke"/>
 </g>
 <path d="m218.91 30.25-6.03 4.99 0.92-3.81-2.5-3.01z" fill="#000000" pointer-events="all" stroke="#000000" stroke-miterlimit="10"/>
 <text x="160" y="104" fill="#000000" font-family="Palatino" font-size="11px" text-anchor="middle"><tspan x="160" y="104">Change permission</tspan><tspan x="161.375" y="117.75">associated with app ops</tspan></text>
 <g stroke="#000000" stroke-miterlimit="10">
  <path d="m290 293.63v-57.26" fill="none" pointer-events="stroke"/>
  <path d="m290 298.88-3.5-7 3.5 1.75 3.5-1.75z" fill="#000000" pointer-events="all"/>
  <path d="m290 231.12 3.5 7-3.5-1.75-3.5 1.75z" fill="#000000" pointer-events="all"/>
 </g>
 <text x="365" y="269" fill="#000000" font-family="Palatino" font-size="11px" text-anchor="middle">Load/store permission info</text>
 <path d="m376.37 200h113.63" fill="none" pointer-events="stroke" stroke="#000000" stroke-miterlimit="10"/>
 <path d="m371.12 200 7-3.5-1.75 3.5 1.75 3.5z" fill="#000000" pointer-events="all" stroke="#000000" stroke-miterlimit="10"/>
 <text x="431" y="194" fill="#000000" font-family="Palatino" font-size="11px" text-anchor="middle">Check permission</text>
 <path d="m290 130v40" fill="none" pointer-events="stroke" stroke="#000000" stroke-miterlimit="10"/>
 <g transform="translate(-.5 11.5)">
  <text x="570" y="210" fill="#000000" font-family="Palatino" font-size="11px" font-style="italic" text-anchor="middle"><tspan x="570" y="210">Location, SMS, camera, audio,</tspan><tspan x="570" y="223.75">etc.</tspan></text>
 </g>
</svg>