<?xml version="1.0" encoding="UTF-8" standalone="no"?>
<!-- SPDX-License-Identifier: CC-BY-SA-4.0 OR GPL-3.0-or-later -->
<svg
   xmlns:dc="http://purl.org/dc/elements/1.1/"
   xmlns:cc="http://creativecommons.org/ns#"
   xmlns:rdf="http://www.w3.org/1999/02/22-rdf-syntax-ns#"
   xmlns:svg="http://www.w3.org/2000/svg"
   xmlns="http://www.w3.org/2000/svg"
   xmlns:sodipodi="http://sodipodi.sourceforge.net/DTD/sodipodi-0.dtd"
   xmlns:inkscape="http://www.inkscape.org/namespaces/inkscape"
   viewBox="0 0 108 108"
   id="vector"
   version="1.1"
   sodipodi:docname="ic_launcher_foreground.svg"
   inkscape:version="1.0.2 (e86c8708, 2021-01-15)"
   inkscape:label="background"
   inkscape:export-filename="/Volumes/Fallout/ic_launcher_foreground.png"
   inkscape:export-xdpi="640"
   inkscape:export-ydpi="640">
  <metadata
     id="metadata17">
    <rdf:RDF>
      <cc:Work
         rdf:about="">
        <dc:format>image/svg+xml</dc:format>
        <dc:type
           rdf:resource="http://purl.org/dc/dcmitype/StillImage" />
      </cc:Work>
    </rdf:RDF>
  </metadata>
  <defs
     id="defs15">
    <inkscape:path-effect
       effect="fillet_chamfer"
       id="path-effect869"
       is_visible="true"
       lpeversion="1"
       satellites_param="F,0,0,1,0,1,0,1 @ F,0,0,1,0,1,0,1 @ F,0,0,1,0,1,0,1 @ F,0,0,1,0,1,0,1 @ F,0,0,1,0,1,0,1 @ F,0,0,1,0,1,0,1 @ F,0,0,1,0,1,0,1 @ F,0,0,1,0,1,0,1 @ F,0,0,1,0,1,0,1 @ F,0,0,1,0,1,0,1 @ F,0,0,1,0,1,0,1 @ F,0,0,1,0,1,0,1 @ F,0,0,1,0,1,0,1 @ F,0,0,1,0,1,0,1 @ F,0,0,1,0,1,0,1 @ F,0,0,1,0,1,0,1 @ F,0,0,1,0,1,0,1 @ F,0,0,1,0,1,0,1 @ F,0,0,1,0,1,0,1 @ F,0,0,1,0,1,0,1 @ F,0,0,1,0,1,0,1 @ F,0,0,1,0,1,0,1 @ F,0,0,1,0,1,0,1 @ F,0,0,1,0,1,0,1 @ F,0,0,1,0,1,0,1 @ F,0,0,1,0,1,0,1"
       unit="px"
       method="auto"
       mode="F"
       radius="1"
       chamfer_steps="1"
       flexible="false"
       use_knot_distance="true"
       apply_no_radius="true"
       apply_with_radius="true"
       only_selected="false"
       hide_knots="false" />
    <inkscape:path-effect
       effect="fillet_chamfer"
       id="path-effect33"
       is_visible="true"
       lpeversion="1"
       satellites_param="IC,0,0,1,0,3,0,1 @ IC,0,0,1,0,3,0,1 @ IC,0,0,1,0,3,0,1 @ IC,0,0,1,0,3,0,1 @ IC,0,0,1,0,3,0,1 @ IC,0,0,1,0,3,0,1 @ IC,0,0,1,0,3,0,1 @ IC,0,0,1,0,3,0,1 @ IC,0,0,1,0,3,0,1 @ IC,0,0,1,0,3,0,1 @ IC,0,0,1,0,3,0,1 @ IC,0,0,1,0,3,0,1 @ IC,0,0,1,0,3,0,1 @ IC,0,0,1,0,3,0,1 @ IC,0,0,1,0,3,0,1 @ IC,0,0,1,0,3,0,1 @ IC,0,0,1,0,3,0,1 @ IC,0,0,1,0,3,0,1 @ IC,0,0,1,0,3,0,1 @ IC,0,0,1,0,3,0,1 @ IC,0,0,1,0,3,0,1 @ IC,0,0,1,0,3,0,1 @ IC,0,0,1,0,3,0,1 @ IC,0,0,1,0,3,0,1 @ IC,0,0,1,0,3,0,1 @ IC,0,0,1,0,3,0,1 @ IC,0,0,1,0,3,0,1 @ IC,0,0,1,0,3,0,1 @ IC,0,0,1,0,3,0,1 @ IC,0,0,1,0,3,0,1 @ IC,0,0,1,0,3,0,1 @ IC,0,0,1,0,3,0,1"
       unit="px"
       method="auto"
       mode="F"
       radius="3"
       chamfer_steps="1"
       flexible="false"
       use_knot_distance="true"
       apply_no_radius="true"
       apply_with_radius="true"
       only_selected="false"
       hide_knots="false" />
    <inkscape:path-effect
       effect="fillet_chamfer"
       id="path-effect31"
       is_visible="true"
       lpeversion="1"
       satellites_param="F,0,0,1,0,10,0,1 @ F,0,0,1,0,10,0,1 @ F,0,0,1,0,10,0,1 @ F,0,0,1,0,10,0,1 @ F,0,0,1,0,10,0,1 @ F,0,0,1,0,10,0,1 @ F,0,0,1,0,10,0,1 @ F,0,0,1,0,10,0,1 @ F,0,0,1,0,10,0,1 @ F,0,0,1,0,10,0,1 @ F,0,0,1,0,10,0,1 @ F,0,0,1,0,10,0,1 @ F,0,0,1,0,10,0,1 @ F,0,0,1,0,10,0,1 @ F,0,0,1,0,10,0,1 @ F,0,0,1,0,10,0,1 @ F,0,0,1,0,10,0,1 @ F,0,0,1,0,10,0,1 @ F,0,0,1,0,10,0,1 @ F,0,0,1,0,10,0,1 @ F,0,0,1,0,10,0,1 @ F,0,0,1,0,10,0,1 @ F,0,0,1,0,10,0,1 @ F,0,0,1,0,10,0,1 @ F,0,0,1,0,10,0,1 @ F,0,0,1,0,10,0,1 @ F,0,0,1,0,10,0,1 @ F,0,0,1,0,10,0,1 @ F,0,0,1,0,10,0,1 @ F,0,0,1,0,10,0,1 @ F,0,0,1,0,10,0,1 @ F,0,0,1,0,10,0,1"
       unit="px"
       method="auto"
       mode="F"
       radius="10"
       chamfer_steps="1"
       flexible="false"
       use_knot_distance="true"
       apply_no_radius="true"
       apply_with_radius="true"
       only_selected="false"
       hide_knots="false" />
    <inkscape:path-effect
       effect="fillet_chamfer"
       id="path-effect29"
       is_visible="true"
       lpeversion="1"
       satellites_param="F,0,0,1,0,1,0,1 @ F,0,0,1,0,1,0,1 @ F,0,0,1,0,1,0,1 @ F,0,0,1,0,1,0,1 @ F,0,0,1,0,1,0,1 @ F,0,0,1,0,1,0,1 @ F,0,0,1,0,1,0,1 @ F,0,0,1,0,1,0,1 @ F,0,0,1,0,1,0,1 @ F,0,0,1,0,1,0,1 @ F,0,0,1,0,1,0,1 @ F,0,0,1,0,1,0,1 @ F,0,0,1,0,1,0,1 @ F,0,0,1,0,1,0,1 @ F,0,0,1,0,1,0,1 @ F,0,0,1,0,1,0,1 @ F,0,0,1,0,1,0,1 @ F,0,0,1,0,1,0,1 @ F,0,0,1,0,1,0,1 @ F,0,0,1,0,1,0,1 @ F,0,0,1,0,1,0,1 @ F,0,0,1,0,1,0,1 @ F,0,0,1,0,1,0,1 @ F,0,0,1,0,1,0,1 @ F,0,0,1,0,1,0,1 @ F,0,0,1,0,1,0,1 @ F,0,0,1,0,1,0,1 @ F,0,0,1,0,1,0,1 @ F,0,0,1,0,1,0,1 @ F,0,0,1,0,1,0,1 @ F,0,0,1,0,1,0,1 @ F,0,0,1,0,1,0,1"
       unit="px"
       method="auto"
       mode="F"
       radius="1"
       chamfer_steps="1"
       flexible="false"
       use_knot_distance="true"
       apply_no_radius="false"
       apply_with_radius="false"
       only_selected="false"
       hide_knots="false" />
  </defs>
  <sodipodi:namedview
     pagecolor="#ffffff"
     bordercolor="#666666"
     borderopacity="1"
     objecttolerance="10"
     gridtolerance="10"
     guidetolerance="10"
     inkscape:pageopacity="0"
     inkscape:pageshadow="2"
     inkscape:window-width="1366"
     inkscape:window-height="723"
     id="namedview13"
     showgrid="false"
     inkscape:zoom="4.9992936"
     inkscape:cx="38.121769"
     inkscape:cy="56.671843"
     inkscape:window-x="0"
     inkscape:window-y="23"
     inkscape:window-maximized="1"
     inkscape:current-layer="layer2"
     inkscape:document-rotation="0" />
  <g
     inkscape:groupmode="layer"
     id="layer2"
     inkscape:label="background">
    <rect
       style="fill:#212121;fill-opacity:1;fill-rule:evenodd;stroke:#212121;stroke-width:0;stroke-miterlimit:4;stroke-dasharray:none"
       id="rect880"
       width="108"
       height="108"
       x="5e-07"
       y="5e-07" />
  </g>
  <g
     inkscape:groupmode="layer"
     id="layer1"
     inkscape:label="foreground"
     style="display:inline">
    <g
       id="g963"
       clip-path="none"
       transform="matrix(0.99908505,0,0,0.99896346,21.525788,21.533696)">
      <path
         id="rect86"
         style="mix-blend-mode:normal;fill:#dcaf74;fill-opacity:1;fill-rule:evenodd;stroke:#212121;stroke-width:0;stroke-linecap:square;stroke-linejoin:round;stroke-miterlimit:4;stroke-dasharray:none;paint-order:markers stroke fill"
         d="M 55.253906,-0.03125 C 54.925373,-0.03893737 54.594738,-0.02881705 54.263672,0 H 9.9804688 C 4.430494,-0.14335199 -0.42366571,5.0278611 0,10.550781 0.0211166,25.632294 -0.04284257,40.716732 0.03125,55.796875 0.31962049,61.131232 5.4392666,65.461073 10.736328,65 25.756558,64.97888 40.778014,65.04284 55.796875,64.96875 61.131232,64.680377 65.461073,59.560734 65,54.263672 64.978884,39.243442 65.042842,24.221985 64.96875,9.203125 64.698403,4.2021649 60.181904,0.08406063 55.253906,-0.03125 Z M 27.609375,6.6796875 h 10.667969 a 1.1777008,1.1777008 0 0 1 1.162109,0.9863281 l 1.005859,6.1230464 c 0.08954,0.544979 0.582867,1.138732 1.089844,1.357422 0.78934,0.34049 1.680172,0.782232 2.669922,1.326172 0.484,0.265994 1.292947,0.337697 1.8125,0.150391 l 5.398438,-1.945313 a 1.198758,1.198758 0 0 1 1.443359,0.525391 l 4.888672,8.412109 a 1.1395565,1.1395565 0 0 1 -0.291016,1.476563 l -5.013672,3.863281 c -0.437455,0.337122 -0.758702,1.058033 -0.726562,1.609375 0.01803,0.309368 0.03476,0.620617 0.04883,0.935547 0.02466,0.55173 0.02466,1.44827 0,2 -0.01407,0.31493 -0.03079,0.626179 -0.04883,0.935547 -0.03214,0.551342 0.289107,1.272253 0.726562,1.609375 l 5.013672,3.863281 a 1.1395565,1.1395565 0 0 1 0.291016,1.476563 l -4.888672,8.412109 a 1.2113798,1.2113798 0 0 1 -1.445313,0.535156 l -5.83789,-2.035156 c -0.521453,-0.181948 -1.330516,-0.105805 -1.814453,0.160156 -0.989745,0.543941 -1.880582,0.985676 -2.669922,1.326172 -0.507041,0.218721 -1.000304,0.812443 -1.089844,1.357422 l -1.005859,6.123047 A 1.1777008,1.1777008 0 0 1 37.833984,58.25 H 27.166016 a 1.1777008,1.1777008 0 0 1 -1.16211,-0.986328 l -1.005859,-6.123047 c -0.08954,-0.544979 -0.58484,-1.137998 -1.074219,-1.392578 -0.672033,-0.349599 -1.367724,-0.805479 -2.251953,-1.341797 -0.472202,-0.286409 -1.285482,-0.366576 -1.808594,-0.189453 l -6.273437,2.125 a 1.1786785,1.1786785 0 0 1 -1.417969,-0.5625 L 7.6640625,41.332031 a 1.1820139,1.1820139 0 0 1 0.3222656,-1.49414 L 13,35.974609 c 0.437455,-0.337122 0.758712,-1.058033 0.726562,-1.609375 -0.01803,-0.309368 -0.03476,-0.620618 -0.04883,-0.935546 -0.02466,-0.55173 -0.02466,-1.448271 0,-2 0.01407,-0.314931 0.03079,-0.626179 0.04883,-0.935547 C 13.758708,29.942799 13.437455,29.221888 13,28.884766 L 7.9863281,25.021484 A 1.1395565,1.1395565 0 0 1 7.6953125,23.544922 l 4.8886715,-8.41211 a 1.2113797,1.2113797 0 0 1 1.445313,-0.535156 l 5.837891,2.035156 c 0.521452,0.181949 1.330516,0.105805 1.814453,-0.160156 0.989745,-0.543941 1.88058,-0.985676 2.669921,-1.326172 0.507041,-0.218721 1.000304,-0.812443 1.089844,-1.357422 l 1.00586,-6.1230464 a 1.1777008,1.1777008 0 0 1 1.162109,-0.9863281 z" />
    </g>
    <g
       id="g969"
       clip-path="none"
       style="mix-blend-mode:multiply;fill:#212121;fill-opacity:1;stroke:none;stroke-width:0;stroke-miterlimit:4;stroke-dasharray:none"
       transform="matrix(0.62180584,0,0,0.62180584,-1.0775842,-1.0776115)" />
    <path
       id="path1999"
       style="display:inline;mix-blend-mode:normal;fill:#dcaf74;fill-opacity:1;stroke:none;stroke-width:0;stroke-miterlimit:4;stroke-dasharray:none;stroke-opacity:1"
       d="m 53.999873,46.507782 c -4.139096,0 -7.500001,3.362464 -7.500001,7.500001 0,4.137534 3.360905,7.5 7.500001,7.5 4.150375,0 7.499999,-3.362466 7.499999,-7.5 0,-4.137537 -3.349624,-7.500001 -7.499999,-7.500001 z" />
  </g>
</svg>
